<?xml version="1.0" standalone="no"?>
<!--©4skl.com-->
<svg viewBox="0 0 4 4" xmlns="http://www.w3.org/2000/svg" version="1.1">
<circle cx="2" cy="2" r="3" fill="black"  stroke="black" stroke-width="0.2"/>
<circle cx="2" cy="2" r="2" fill="gray"/>
<path d="M 2 4 C 1 3 3 1 2 0 C 1 1 3 3 2 4" fill="white">
    <animateTransform attributeType="xml" attributeName="transform" type="rotate" from="-60 2 2" to="300 2 2" dur="7s" additive="sum" repeatCount="indefinite" />
</path>
<path d="M 2 4 C 1 3 3 1 2 0 C 1 1 3 3 2 4" fill="white">
    <animateTransform attributeType="xml" attributeName="transform" type="rotate" from="0 2 2" to="360 2 2" dur="3s" additive="sum" repeatCount="indefinite" />
</path>
<path d="M 2 4 C 1 3 3 1 2 0 C 1 1 3 3 2 4" fill="white">
    <animateTransform attributeType="xml" attributeName="transform" type="rotate" from="60 2 2" to="420 2 2" dur="10s" repeatCount="indefinite" />
</path>
<path d="M 4 2.5 L 2 2.5 L 1 2.5 L 4 0.6 L 4 0 L 0 2.5 L 0 3 C 1.5 2 1.3 4.3 2 2.5 L 2 3 C 2.3 3.3 2.6 3.6 1 3.5 L 1 4 C 3 4 3 4 3 3.5 C 3 3 -1.3 0.5 2 0.5 L 2 0 C -2 0 1 2 2 3 L 2 2.5 C 3 0 3 5 4 2.5" fill="black"/>
<path d="M 4 2.5 L 2 2.5 L 1 2.5 L 4 0.6 L 4 0 L 0 2.5 L 0 3 C 1 3 1.3 2.3 2 3 L 2 3 C 2.3 3.3 2.6 3.6 1 3.5 L 1 4 C 3 4 3 4 3 3.5 C 3 3 -1.4 0.5 2.5 0.5 L 2.5 0 C -2.2 0 1 2 2 3 L 2 2.5 C 3 0 3 5 4 2.5" fill="black"/>
</svg>
